<svg width="183" height="38" viewBox="0 0 183 38" fill="none" xmlns="http://www.w3.org/2000/svg"><path d="M153.445 2.86707c-.831.53412-2.428 1.25541-4.474.80803-3.55-.77607-4.568-3.496877-4.568-3.496877s-1.017 2.716237-4.567 3.496877c-2.051.44738-3.643-.27391-4.475-.80803h-.64V17.5302c0 .3698.103 1.1002.78 1.8306.837.9039 2.253 1.4883 4.211 1.7393 1.56.2009 2.713.6346 3.524 1.333.599.5113 1.167 1.397 1.167 1.397s.589-.9039 1.163-1.397c.816-.6984 1.963-1.1321 3.524-1.333 1.958-.251 3.379-.8354 4.211-1.7393.677-.7304.78-1.4608.78-1.8306V2.86707h-.641.005z" fill="#fff"/><path d="M153.507 3.43767s-1.942 1.34215-4.676.73499c-3.188-.7076-4.428-2.83037-4.428-2.83037s-1.24 2.12277-4.428 2.83037c-2.733.60716-4.676-.73499-4.676-.73499V17.5256c0 .4794.228 2.5108 4.495 3.0586 1.685.2192 2.946.6985 3.845 1.47.325.2785.573.5615.764.8172.186-.2603.434-.5433.76-.8172.904-.7715 2.16-1.2554 3.844-1.47 4.268-.5478 4.495-2.5792 4.495-3.0586V3.43767h.005z" fill="#013369"/><path d="M144.408 21.4427s1.235-1.3558 4.459-1.7987c3.684-.5067 3.576-2.0451 3.576-2.1227V10.144h-16.069v7.3773c0 .0776-.109 1.616 3.575 2.1227 3.219.4383 4.459 1.7987 4.459 1.7987z" fill="#fff"/><path d="M140.657 15.5396V12.029l-.496-.2465v-.9085h2.258v.9085l-.47.2465v7.1581l-1.204-.3196-1.741-4.5742v3.013l.553.3789v.9313l-2.418-.5479v-.7943l.553-.1917v-5.049l-.569-.2511v-.9085h1.835l1.71 4.6656h-.011zM144.812 18.7488l.48.5113v.9085l-2.397-.7943v-.7715l.532-.1918v-6.382l-.527-.2374v-.9176h4.164v1.8535h-.914l-.274-.7624h-1.059v2.141h.796l.315-.4063h.635v1.9037h-.635l-.3-.3835h-.806v3.5288h-.01zM147.462 19.0684v-.9085l.594-.4336V12.029l-.511-.2374v-.9176h2.402v.9176l-.47.2374v5.3457l1.034-.251.196-1.397h.987v2.3374l-4.232 1.0043z" fill="#D50A0A"/><path d="M136.792 8.63705l-.728-.48847h.889l.294-.74868.295.74868h.888l-.728.48847.269.7578-.724-.45194-.718.45194.269-.7578h-.006zM139.939 8.63705l-.723-.48847h.889l.294-.74868.295.74868h.888l-.728.48847.268.7578-.723-.45194-.723.45194.268-.7578h-.005zM136.792 6.10807l-.728-.4839h.889l.294-.74868.295.74868h.888l-.728.4839.269.75781-.724-.45195-.718.45195.269-.75781h-.006zM139.939 6.10807l-.723-.4839h.889l.294-.74868.295.74868h.888l-.728.4839.268.75781-.723-.45195-.723.45195.268-.75781h-.005zM152.288 9.39485l-.723-.45194-.724.45194.269-.7578-.729-.48847h.889l.295-.74868.289.74868h.889l-.729.48847.269.7578h.005zM149.136 9.39485l-.723-.45194-.724.45194.269-.7578-.729-.48847h.889l.29-.74868.294.74868h.889l-.729.48847.269.7578h.005zM152.288 6.86588l-.723-.45195-.724.45195.269-.75781-.729-.4839h.889l.295-.74868.289.74868h.889l-.729.4839.269.75781h.005zM149.136 6.86588l-.723-.45195-.724.45195.269-.75781-.729-.4839h.889l.29-.74868.294.74868h.889l-.729.4839.269.75781h.005zM146.408 4.07668s-.377.17347-.899.63455c.119.05934.253.14152.326.20086-.078.06392-.161.12783-.233.19174-.341-.25108-.697-.37891-.976-.43825.093-.05935.191-.11413.284-.16891.144.03196.289.08674.289.08674.594-.40173 1.106-.57521 1.106-.57521s-.057-.02739-.217-.02282c-2.331.02739-4.48 1.57496-4.077 4.22273.041.28303.165.79433.32 1.01802.052-.43825.238-1.41519.791-2.4606-.191-.05935-.351-.08674-.351-.08674.056-.10499.134-.24195.134-.24195.408.06848.77.21913 1.085.44282-.077.10499-.129.17804-.16.23282-.109-.07761-.222-.14152-.341-.20086-.62.96323-.91 1.87626-1.028 2.35559.005.03196.072.04565.129.04109 2.557-.29673 3.751-1.45171 4.118-2.70711.237-.82629.16-1.68453-.16-2.38756-.021-.04565-.068-.13239-.14-.12782v-.00913zm-2.196 2.50168c-.33-.24652-.718-.39716-1.1-.46108 0 0 .118-.1689.18-.25564.466.08217.843.27391 1.106.47477-.067.08674-.129.16891-.191.24652l.005-.00457zm.419-.52499c-.31-.22825-.682-.40173-1.106-.47933.067-.07304.139-.15522.212-.22826.325.05022.739.20087 1.1.47021-.072.0776-.144.15977-.206.23282v.00456zm.465-.49759c-.321-.23739-.687-.3926-1.07-.46108.093-.07761.191-.14152.274-.20543.481.10043.806.29673 1.028.45651-.077.07304-.155.14152-.227.21456l-.005-.00456zM46.9822 2.75732h6.6859L55.058 12.166l1.4622-9.40868h6.314V22.8712h-4.8207V11.8967l-2.1391 10.9745h-2.0048l-2.139-10.9745v10.9745h-4.7535V2.75732h.0051zM71.8245 19.9223h-2.5783l-.372 2.9445h-4.8569l3.2242-20.11387h6.8926L77.663 22.8668h-5.4303l-.4082-2.9445zm-2.072-3.9762h1.5604l-.7802-6.10812-.7802 6.10812zM78.8516 2.75732h8.0137c3.126 0 5.0584 1.21432 5.0584 4.43273V18.2468c0 3.1636-1.7309 4.6244-5.0274 4.6244h-8.0447V2.75732zm5.5337 16.24728h.7802c.8163 0 1.054-.3789 1.054-1.2144V7.65113c0-.83998-.2015-1.16411-.9869-1.16411h-.8473V19.0046zM93.0913 2.75732h8.0137c3.126 0 5.058 1.21432 5.058 4.43273V18.2468c0 3.1636-1.73 4.6244-5.027 4.6244h-8.0447V2.75732zM98.625 19.0046h.7802c.8168 0 1.0538-.3789 1.0538-1.2144V7.65113c0-.83998-.201-1.16411-.9866-1.16411h-.8474V19.0046zM118.047 2.75732v4.16339h-5.161v3.43299h3.973v4.2729h-3.973v3.9991h5.161v4.2455h-10.695V2.75732h10.695zM124.671 2.75732l2.888 9.73278V2.75732h4.79V22.8712h-4.924l-3.327-10.4906v10.4906h-4.857V2.75732h5.43zM47.3852 25.793h5.0636l2.2992 7.6648 2.2993-7.6648h5.0635l.403 11.8419h-3.9475v-7.1216l-2.108 7.1216h-3.6324l-2.1132-7.1216v7.1216h-3.7356l.403-11.8419h.0051zM64.0173 31.7049c0-3.7844 2.6196-6.0989 6.8358-6.0989 4.2161 0 6.8409 2.3145 6.8409 6.0989 0 3.7845-2.6196 6.1173-6.8409 6.1173s-6.8358-2.3328-6.8358-6.1173zm9.5587-.0365c0-1.7712-.8215-3.1499-2.7229-3.1499-1.9014 0-2.7229 1.3787-2.7229 3.1499 0 1.7713.8215 3.1682 2.7229 3.1682 1.9014 0 2.7229-1.3969 2.7229-3.1682zM90.7818 34.1656c0 1.3969-.7389 2.2186-1.6483 2.7208-.9093.5021-2.2785.7441-3.8648.7441h-5.8695V25.7886h5.6577c1.2658 0 2.7436.1689 3.5858.6345.8422.4657 1.457 1.2326 1.457 2.4424 0 1.2097-.9713 2.2003-2.2372 2.4788 1.7929.2785 2.9141 1.4152 2.9141 2.8167l.0052.0046zm-7.3887-3.7845h1.4571c.3359 0 .6097-.0731.8422-.242.2325-.1689.3824-.4291.3824-.7441 0-.2967-.1241-.5387-.3566-.7076-.2118-.1689-.5063-.2602-.868-.2602h-1.4571v1.9584-.0045zm3.2707 3.506c0-.2967-.0827-.5204-.2325-.6893-.2945-.3379-.8422-.4657-1.5604-.4657h-1.4778v2.3145h1.4778c.7182 0 1.2659-.1324 1.5604-.4656.1498-.1689.2325-.3926.2325-.6894v-.0045zM92.3835 25.793h4.0302v11.8419h-4.0302V25.793zM98.8213 25.793h4.0297v8.9887h5.043v2.8532h-9.0778V25.793h.0051zM109.419 25.793h9.476v2.7619h-5.446v1.6388h5.043v2.7984h-5.043v1.8078h5.637v2.835h-9.667V25.793zM21.3753 38c11.8053 0 21.3753-8.5066 21.3753-19 0-10.49341-9.57-19-21.3753-19C9.57005 0 0 8.50659 0 19c0 10.4934 9.57005 19 21.3753 19z" fill="#fff"/><path d="M35.4343 22.0588h.5425v.0868h-.217v.4108h-.1085v-.4108h-.217v-.0868zM9.93583 23.9671H8.70612c-.27901 0-.41334-.137-.41334-.4018v-.4337c0-.1232.03616-.2236.11367-.3058.07233-.0822.17566-.1187.29967-.1187h.96621c.22735 0 .38237.0959.44947.2967l.1344.42h.8835v-.4611c0-.3058-.1137-.5615-.3462-.7669-.2376-.2054-.5218-.3059-.85767-.3059H8.50462c-.33585 0-.63036.105-.8732.3196-.23768.21-.35652.4656-.35652.7624v.7395c0 .3013.11884.5615.35652.7761.24284.2145.53735.3195.8732.3195h1.22971c.27387 0 .40817.1416.40817.4155v.5615c0 .1187-.0362.2237-.1085.3013-.0775.0821-.17566.1187-.29967.1187h-.9817c-.24801 0-.39785-.1005-.45985-.2968l-.12918-.4702h-.8887v.5113c0 .3104.11368.5615.34619.767.23251.2054.51668.3058.86286.3058h1.45188c.33587 0 .63037-.1095.86807-.3195.2377-.21.3513-.4702.3513-.7715v-.8674c0-.2967-.1188-.5524-.3617-.767-.2376-.2145-.527-.3241-.86282-.3241l.00515-.0045zm5.90057-1.7576c.2377.21.3565.4656.3565.7624v1.0773c0 .3013-.1188.557-.3565.7715-.2428.21-.5374.3196-.8732.3196h-1.5914v1.8854h-1.0179v-5.1312h2.6093c.3358 0 .6304.105.8732.3196v-.0046zm-.6614.9313c0-.1233-.0413-.2237-.1188-.3013-.0775-.0822-.1757-.1187-.2945-.1187h-1.3899v1.5932h1.3899c.1188 0 .217-.0411.2945-.1187.0775-.0822.1188-.178.1188-.3013v-.7532zm10.1581 1.7621l1.0127 2.1182h-1.085l-.9404-2.0086h-.9662v2.0086h-1.023v-5.1312h2.5524c.341 0 .6303.105.868.3196.2377.21.3617.4656.3617.7624v.8947c0 .2328-.0723.4428-.217.63-.1499.1872-.341.315-.5632.4017v.0046zm-.248-1.7621c0-.1233-.0362-.2237-.1085-.3013-.0724-.0822-.1705-.1187-.2894-.1187H23.349v1.4699h1.3382c.1189 0 .217-.0365.2894-.1141.0723-.0776.1085-.178.1085-.3013v-.6345zm1.6689-.42h1.4674v4.3049h1.023v-4.3049h1.4829v-.8263H26.754v.8263zm7.3679 1.2508h-1.2297c-.2738 0-.4133-.1369-.4133-.4017v-.4337c0-.1233.0361-.2237.1136-.3059.0724-.0821.1757-.1186.2997-.1186h.9662c.2274 0 .3772.0958.4495.2967l.1344.42h.8887v-.4611c0-.3059-.1189-.5615-.3514-.7669-.2376-.2055-.5218-.3059-.8628-.3059h-1.4261c-.341 0-.6303.105-.868.3196-.2377.2099-.3617.4656-.3617.7623v.7396c0 .3013.124.5615.3617.776.2377.2146.527.3196.868.3196h1.2297c.2739 0 .4082.1415.4082.4154v.5615c0 .1187-.0362.2237-.1085.3013-.0775.0822-.1757.1187-.2997.1187h-.9765c-.248 0-.3927-.1004-.4599-.2967l-.1343-.4702h-.8887v.5113c0 .3104.1188.5615.3462.7669.2325.2055.5167.3059.8628.3059h1.4468c.341 0 .6303-.1096.8732-.3196.2376-.21.3565-.4702.3565-.7715v-.8674c0-.2967-.1189-.5523-.3669-.7669-.2376-.2145-.527-.3241-.8628-.3241l.0051-.0046zm2.5163-1.9082l-.2222.3013-.217-.3013h-.093v.4976h.093v-.3059s-.0103-.0319-.0103-.0547c.0103.0182.0258.0365.0361.0502l.1809.2465h.0155l.1757-.242s.0155-.0319.0258-.0547V22.561h.1033v-.4976h-.0878zm-15.9191.1461c.248.2054.3617.4656.3617.7669v2.9491c0 .3104-.1189.5706-.3617.7806-.2429.2146-.527.3196-.8681.3196h-1.3795c-.341 0-.6355-.1096-.8732-.3196-.2377-.21-.3617-.4702-.3617-.7806v-2.9491c0-.2921.124-.5524.3617-.7623.2377-.2146.5322-.3196.8732-.3196h1.3795c.3462 0 .6304.105.8681.315zm-.6562.9313c0-.1233-.0362-.2237-.1189-.3013-.0775-.0822-.1756-.1187-.2945-.1187h-.9765c-.1292 0-.2273.0365-.3048.1187-.0724.0776-.1085.178-.1085.3013v2.6295c0 .1187.0361.2191.1085.2967.0775.0822.1756.1278.3048.1278h.9765c.1189 0 .217-.0411.2945-.1278.0776-.0822.1189-.178.1189-.2967v-2.6295zm4.304-14.34818H13.377l-1.6793 2.37388h10.9848l1.6844-2.37388zm4.1645 7.12158h-1.6482l-1.6896 2.3784h5.0273l1.6896 2.3739h3.2086L26.6145 8.71045l-6.8306 9.58675h-7.4713l1.7154-2.3784h4.6398l1.6896-2.3739H10.0082l-1.6896 2.3739h2.4853L7.41957 20.671H21.3339l5.2806-7.4548 1.9169 2.698z" fill="#000"/><path d="M161.604 7.05763v2.71624h-5.203V6.62851c0-2.01321 1.457-3.94882 5.41-3.94882h1.178c3.885 0 5.962 1.4791 5.962 4.16338v1.04998c0 2.01321-.139 3.06315-2.252 5.08095-.729.7259-1.561 1.5065-2.496 2.3374-3.26 3.0358-3.157 3.3599-3.157 3.7616h7.905v3.8438h-12.969v-2.634c0-2.068.14-3.0358 3.431-6.7975.729-.8856 1.524-1.8534 2.186-2.5793 1.214-1.53385 1.493-2.04058 1.493-2.76644v-1.0728c0-.51129-.243-.75324-.765-.75324-.553 0-.728.24195-.728.75324l.005-.00913zM170.445 8.85628V6.6559c0-2.0406 1.524-3.97621 5.409-3.97621h1.008c3.916 0 5.823 1.53388 5.823 3.97621v1.99039c0 1.82601-1.111 2.55191-1.767 2.93081 1.214.3241 2.082 1.2371 2.082 2.5519v4.5971c0 2.9034-2.392 4.4875-6.035 4.4875h-1.007c-4.439 0-5.792-2.0406-5.792-3.9489v-3.4375h5.476v2.6341c0 .4839.279.7258.796.7258s.796-.2419.796-.7258v-3.4147c0-.5113-.104-.6711-.765-.6711h-2.738v-4.0584h2.531c.553 0 .832-.2419.832-.69844v-2.5519c0-.56607-.206-.72585-.764-.72585-.522 0-.729.18717-.729.72585v1.79866h-5.167l.011-.00914z" fill="#fff"/></svg>